<mxfile host="app.diagrams.net" modified="2020-11-02T23:31:15.658Z" agent="5.0 (Windows NT 10.0; Win64; x64) AppleWebKit/537.36 (KHTML, like Gecko) Chrome/86.0.4240.111 Safari/537.36 OPR/72.0.3815.186" etag="6XGkK6nOW8TfHtJevx6y" version="13.8.8" type="github">
  <diagram id="UjGg4rbpi19XOb0TRebn" name="Page-1">
    <mxGraphModel dx="1068" dy="462" grid="1" gridSize="10" guides="1" tooltips="1" connect="1" arrows="1" fold="1" page="1" pageScale="1" pageWidth="827" pageHeight="1169" math="0" shadow="0">
      <root>
        <mxCell id="0" />
        <mxCell id="1" parent="0" />
        <mxCell id="qrpFLLjBW_we5XAOsalv-1" value="Inicio" style="ellipse;whiteSpace=wrap;html=1;aspect=fixed;" vertex="1" parent="1">
          <mxGeometry x="130" width="80" height="80" as="geometry" />
        </mxCell>
        <mxCell id="qrpFLLjBW_we5XAOsalv-2" value="" style="endArrow=classic;html=1;exitX=0.5;exitY=1;exitDx=0;exitDy=0;entryX=0.5;entryY=0;entryDx=0;entryDy=0;" edge="1" parent="1" source="qrpFLLjBW_we5XAOsalv-1" target="qrpFLLjBW_we5XAOsalv-3">
          <mxGeometry width="50" height="50" relative="1" as="geometry">
            <mxPoint x="350" y="230" as="sourcePoint" />
            <mxPoint x="170" y="110" as="targetPoint" />
          </mxGeometry>
        </mxCell>
        <mxCell id="qrpFLLjBW_we5XAOsalv-3" value="tabXToma=0&lt;br&gt;nTomas=0&lt;br&gt;nDias=0&lt;br&gt;tabXCajas=0&lt;br&gt;nCajasCom=0&lt;br&gt;tabNec=0&lt;br&gt;tabExt=0.0&lt;br&gt;cajasComp=0.0" style="rounded=0;whiteSpace=wrap;html=1;" vertex="1" parent="1">
          <mxGeometry x="110" y="110" width="120" height="130" as="geometry" />
        </mxCell>
        <mxCell id="qrpFLLjBW_we5XAOsalv-4" value="" style="endArrow=classic;html=1;exitX=0.5;exitY=1;exitDx=0;exitDy=0;" edge="1" parent="1" source="qrpFLLjBW_we5XAOsalv-3" target="qrpFLLjBW_we5XAOsalv-6">
          <mxGeometry width="50" height="50" relative="1" as="geometry">
            <mxPoint x="350" y="210" as="sourcePoint" />
            <mxPoint x="400" y="160" as="targetPoint" />
          </mxGeometry>
        </mxCell>
        <mxCell id="qrpFLLjBW_we5XAOsalv-5" style="edgeStyle=orthogonalEdgeStyle;rounded=0;orthogonalLoop=1;jettySize=auto;html=1;entryX=0.5;entryY=0;entryDx=0;entryDy=0;" edge="1" parent="1" source="qrpFLLjBW_we5XAOsalv-6" target="qrpFLLjBW_we5XAOsalv-8">
          <mxGeometry relative="1" as="geometry">
            <mxPoint x="170" y="380" as="targetPoint" />
          </mxGeometry>
        </mxCell>
        <mxCell id="qrpFLLjBW_we5XAOsalv-6" value="&quot;Programa que calcula de cuantas cajas de un medicamento debe comprar&quot;" style="ellipse;whiteSpace=wrap;html=1;" vertex="1" parent="1">
          <mxGeometry x="90" y="270" width="160" height="80" as="geometry" />
        </mxCell>
        <mxCell id="qrpFLLjBW_we5XAOsalv-7" style="edgeStyle=orthogonalEdgeStyle;rounded=0;orthogonalLoop=1;jettySize=auto;html=1;" edge="1" parent="1" source="qrpFLLjBW_we5XAOsalv-8" target="qrpFLLjBW_we5XAOsalv-10">
          <mxGeometry relative="1" as="geometry" />
        </mxCell>
        <mxCell id="qrpFLLjBW_we5XAOsalv-8" value="&quot;Ingresa el numero de tabletas que le recetaron en cada toma: &quot;" style="ellipse;whiteSpace=wrap;html=1;" vertex="1" parent="1">
          <mxGeometry x="75" y="380" width="190" height="80" as="geometry" />
        </mxCell>
        <mxCell id="qrpFLLjBW_we5XAOsalv-9" style="edgeStyle=orthogonalEdgeStyle;rounded=0;orthogonalLoop=1;jettySize=auto;html=1;entryX=0.5;entryY=0;entryDx=0;entryDy=0;" edge="1" parent="1" source="qrpFLLjBW_we5XAOsalv-10" target="qrpFLLjBW_we5XAOsalv-12">
          <mxGeometry relative="1" as="geometry" />
        </mxCell>
        <mxCell id="qrpFLLjBW_we5XAOsalv-10" value="tabXToma" style="shape=parallelogram;perimeter=parallelogramPerimeter;whiteSpace=wrap;html=1;fixedSize=1;" vertex="1" parent="1">
          <mxGeometry x="110" y="490" width="120" height="30" as="geometry" />
        </mxCell>
        <mxCell id="qrpFLLjBW_we5XAOsalv-11" style="edgeStyle=orthogonalEdgeStyle;rounded=0;orthogonalLoop=1;jettySize=auto;html=1;" edge="1" parent="1" source="qrpFLLjBW_we5XAOsalv-12" target="qrpFLLjBW_we5XAOsalv-14">
          <mxGeometry relative="1" as="geometry" />
        </mxCell>
        <mxCell id="qrpFLLjBW_we5XAOsalv-12" value="&quot;Ingresa el numero de tomas al dia: &quot;" style="ellipse;whiteSpace=wrap;html=1;" vertex="1" parent="1">
          <mxGeometry x="75" y="550" width="190" height="80" as="geometry" />
        </mxCell>
        <mxCell id="qrpFLLjBW_we5XAOsalv-30" style="edgeStyle=orthogonalEdgeStyle;rounded=0;orthogonalLoop=1;jettySize=auto;html=1;exitX=0.5;exitY=1;exitDx=0;exitDy=0;entryX=0.5;entryY=0;entryDx=0;entryDy=0;" edge="1" parent="1" source="qrpFLLjBW_we5XAOsalv-14" target="qrpFLLjBW_we5XAOsalv-28">
          <mxGeometry relative="1" as="geometry" />
        </mxCell>
        <mxCell id="qrpFLLjBW_we5XAOsalv-14" value="nTomas" style="shape=parallelogram;perimeter=parallelogramPerimeter;whiteSpace=wrap;html=1;fixedSize=1;" vertex="1" parent="1">
          <mxGeometry x="110" y="660" width="120" height="30" as="geometry" />
        </mxCell>
        <mxCell id="qrpFLLjBW_we5XAOsalv-16" style="edgeStyle=orthogonalEdgeStyle;rounded=0;orthogonalLoop=1;jettySize=auto;html=1;exitX=0.5;exitY=1;exitDx=0;exitDy=0;entryX=0.5;entryY=0;entryDx=0;entryDy=0;" edge="1" parent="1" source="qrpFLLjBW_we5XAOsalv-17" target="qrpFLLjBW_we5XAOsalv-24">
          <mxGeometry relative="1" as="geometry">
            <Array as="points">
              <mxPoint x="565" y="685" />
              <mxPoint x="470" y="685" />
            </Array>
          </mxGeometry>
        </mxCell>
        <mxCell id="qrpFLLjBW_we5XAOsalv-47" style="edgeStyle=orthogonalEdgeStyle;rounded=0;orthogonalLoop=1;jettySize=auto;html=1;exitX=1;exitY=0.5;exitDx=0;exitDy=0;entryX=0.5;entryY=0;entryDx=0;entryDy=0;" edge="1" parent="1" source="qrpFLLjBW_we5XAOsalv-17" target="qrpFLLjBW_we5XAOsalv-46">
          <mxGeometry relative="1" as="geometry" />
        </mxCell>
        <mxCell id="qrpFLLjBW_we5XAOsalv-17" value="tabExt&amp;gt;0" style="rhombus;whiteSpace=wrap;html=1;" vertex="1" parent="1">
          <mxGeometry x="525" y="585" width="80" height="80" as="geometry" />
        </mxCell>
        <mxCell id="qrpFLLjBW_we5XAOsalv-41" style="edgeStyle=orthogonalEdgeStyle;rounded=0;orthogonalLoop=1;jettySize=auto;html=1;" edge="1" parent="1" source="qrpFLLjBW_we5XAOsalv-20" target="qrpFLLjBW_we5XAOsalv-40">
          <mxGeometry relative="1" as="geometry" />
        </mxCell>
        <mxCell id="qrpFLLjBW_we5XAOsalv-20" value="tabNec=tabXToma*nTomas*nDias" style="rounded=0;whiteSpace=wrap;html=1;" vertex="1" parent="1">
          <mxGeometry x="460" y="310" width="200" height="60" as="geometry" />
        </mxCell>
        <mxCell id="qrpFLLjBW_we5XAOsalv-21" value="Si" style="text;html=1;align=center;verticalAlign=middle;resizable=0;points=[];autosize=1;" vertex="1" parent="1">
          <mxGeometry x="515" y="665" width="30" height="20" as="geometry" />
        </mxCell>
        <mxCell id="qrpFLLjBW_we5XAOsalv-22" value="No" style="text;html=1;align=center;verticalAlign=middle;resizable=0;points=[];autosize=1;" vertex="1" parent="1">
          <mxGeometry x="625" y="605" width="30" height="20" as="geometry" />
        </mxCell>
        <mxCell id="qrpFLLjBW_we5XAOsalv-48" style="edgeStyle=orthogonalEdgeStyle;rounded=0;orthogonalLoop=1;jettySize=auto;html=1;entryX=0.5;entryY=0;entryDx=0;entryDy=0;" edge="1" parent="1" source="qrpFLLjBW_we5XAOsalv-24" target="qrpFLLjBW_we5XAOsalv-46">
          <mxGeometry relative="1" as="geometry">
            <Array as="points">
              <mxPoint x="663" y="740" />
            </Array>
          </mxGeometry>
        </mxCell>
        <mxCell id="qrpFLLjBW_we5XAOsalv-24" value="nCajasComp=nCajasComp+1" style="whiteSpace=wrap;html=1;" vertex="1" parent="1">
          <mxGeometry x="380" y="710" width="180" height="60" as="geometry" />
        </mxCell>
        <mxCell id="qrpFLLjBW_we5XAOsalv-25" value="Fin" style="ellipse;whiteSpace=wrap;html=1;aspect=fixed;" vertex="1" parent="1">
          <mxGeometry x="622.5" y="950" width="80" height="80" as="geometry" />
        </mxCell>
        <mxCell id="qrpFLLjBW_we5XAOsalv-27" style="edgeStyle=orthogonalEdgeStyle;rounded=0;orthogonalLoop=1;jettySize=auto;html=1;" edge="1" parent="1" source="qrpFLLjBW_we5XAOsalv-28" target="qrpFLLjBW_we5XAOsalv-29">
          <mxGeometry relative="1" as="geometry" />
        </mxCell>
        <mxCell id="qrpFLLjBW_we5XAOsalv-28" value="&quot;Ingresa el numero de dias de trataiento: &quot;" style="ellipse;whiteSpace=wrap;html=1;" vertex="1" parent="1">
          <mxGeometry x="70" y="720" width="190" height="80" as="geometry" />
        </mxCell>
        <mxCell id="qrpFLLjBW_we5XAOsalv-34" style="edgeStyle=orthogonalEdgeStyle;rounded=0;orthogonalLoop=1;jettySize=auto;html=1;" edge="1" parent="1" source="qrpFLLjBW_we5XAOsalv-29" target="qrpFLLjBW_we5XAOsalv-32">
          <mxGeometry relative="1" as="geometry" />
        </mxCell>
        <mxCell id="qrpFLLjBW_we5XAOsalv-29" value="nDias" style="shape=parallelogram;perimeter=parallelogramPerimeter;whiteSpace=wrap;html=1;fixedSize=1;" vertex="1" parent="1">
          <mxGeometry x="105" y="830" width="120" height="30" as="geometry" />
        </mxCell>
        <mxCell id="qrpFLLjBW_we5XAOsalv-31" style="edgeStyle=orthogonalEdgeStyle;rounded=0;orthogonalLoop=1;jettySize=auto;html=1;" edge="1" parent="1" source="qrpFLLjBW_we5XAOsalv-32" target="qrpFLLjBW_we5XAOsalv-33">
          <mxGeometry relative="1" as="geometry" />
        </mxCell>
        <mxCell id="qrpFLLjBW_we5XAOsalv-32" value="&quot;Ingresa el numero de tabletas que contiene cada caja: &quot;" style="ellipse;whiteSpace=wrap;html=1;" vertex="1" parent="1">
          <mxGeometry x="70" y="890" width="190" height="80" as="geometry" />
        </mxCell>
        <mxCell id="qrpFLLjBW_we5XAOsalv-35" style="edgeStyle=orthogonalEdgeStyle;rounded=0;orthogonalLoop=1;jettySize=auto;html=1;" edge="1" parent="1" source="qrpFLLjBW_we5XAOsalv-33">
          <mxGeometry relative="1" as="geometry">
            <mxPoint x="560" y="110" as="targetPoint" />
            <Array as="points">
              <mxPoint x="330" y="1015" />
              <mxPoint x="330" y="60" />
            </Array>
          </mxGeometry>
        </mxCell>
        <mxCell id="qrpFLLjBW_we5XAOsalv-33" value="tabXCaja" style="shape=parallelogram;perimeter=parallelogramPerimeter;whiteSpace=wrap;html=1;fixedSize=1;" vertex="1" parent="1">
          <mxGeometry x="105" y="1000" width="120" height="30" as="geometry" />
        </mxCell>
        <mxCell id="qrpFLLjBW_we5XAOsalv-38" style="edgeStyle=orthogonalEdgeStyle;rounded=0;orthogonalLoop=1;jettySize=auto;html=1;" edge="1" parent="1" source="qrpFLLjBW_we5XAOsalv-36" target="qrpFLLjBW_we5XAOsalv-37">
          <mxGeometry relative="1" as="geometry" />
        </mxCell>
        <mxCell id="qrpFLLjBW_we5XAOsalv-36" value="&quot;Ingresa el numero de tabletas que contiene cada caja &quot;" style="ellipse;whiteSpace=wrap;html=1;" vertex="1" parent="1">
          <mxGeometry x="480" y="110" width="160" height="80" as="geometry" />
        </mxCell>
        <mxCell id="qrpFLLjBW_we5XAOsalv-39" style="edgeStyle=orthogonalEdgeStyle;rounded=0;orthogonalLoop=1;jettySize=auto;html=1;" edge="1" parent="1" source="qrpFLLjBW_we5XAOsalv-37" target="qrpFLLjBW_we5XAOsalv-20">
          <mxGeometry relative="1" as="geometry" />
        </mxCell>
        <mxCell id="qrpFLLjBW_we5XAOsalv-37" value="tabXCaja" style="shape=parallelogram;perimeter=parallelogramPerimeter;whiteSpace=wrap;html=1;fixedSize=1;" vertex="1" parent="1">
          <mxGeometry x="500" y="220" width="120" height="60" as="geometry" />
        </mxCell>
        <mxCell id="qrpFLLjBW_we5XAOsalv-43" style="edgeStyle=orthogonalEdgeStyle;rounded=0;orthogonalLoop=1;jettySize=auto;html=1;entryX=0.471;entryY=-0.017;entryDx=0;entryDy=0;entryPerimeter=0;" edge="1" parent="1" source="qrpFLLjBW_we5XAOsalv-40" target="qrpFLLjBW_we5XAOsalv-42">
          <mxGeometry relative="1" as="geometry" />
        </mxCell>
        <mxCell id="qrpFLLjBW_we5XAOsalv-40" value="cajasComp=tabNec/tabXCaja" style="rounded=0;whiteSpace=wrap;html=1;" vertex="1" parent="1">
          <mxGeometry x="450" y="390" width="220" height="60" as="geometry" />
        </mxCell>
        <mxCell id="qrpFLLjBW_we5XAOsalv-44" style="edgeStyle=orthogonalEdgeStyle;rounded=0;orthogonalLoop=1;jettySize=auto;html=1;" edge="1" parent="1" source="qrpFLLjBW_we5XAOsalv-42" target="qrpFLLjBW_we5XAOsalv-17">
          <mxGeometry relative="1" as="geometry" />
        </mxCell>
        <mxCell id="qrpFLLjBW_we5XAOsalv-42" value="tabExt=tabNec%tabXCaja" style="rounded=0;whiteSpace=wrap;html=1;" vertex="1" parent="1">
          <mxGeometry x="460" y="490" width="210" height="60" as="geometry" />
        </mxCell>
        <mxCell id="qrpFLLjBW_we5XAOsalv-49" style="edgeStyle=orthogonalEdgeStyle;rounded=0;orthogonalLoop=1;jettySize=auto;html=1;" edge="1" parent="1" source="qrpFLLjBW_we5XAOsalv-46" target="qrpFLLjBW_we5XAOsalv-25">
          <mxGeometry relative="1" as="geometry" />
        </mxCell>
        <mxCell id="qrpFLLjBW_we5XAOsalv-46" value="&quot;Aqui esta los resultados&quot; + nCajaCom" style="ellipse;whiteSpace=wrap;html=1;" vertex="1" parent="1">
          <mxGeometry x="560" y="830" width="205" height="80" as="geometry" />
        </mxCell>
      </root>
    </mxGraphModel>
  </diagram>
</mxfile>
